<svg width="24" height="24" version="1.1" xmlns="http://www.w3.org/2000/svg">
  <path fill="#172852" d="M 1.5 12.001 C 1.5 20.073 10.239 25.118 17.23 21.082 C 20.474 19.209 22.473 15.747 22.473 12.001 C 22.473 3.929 13.734 -1.116 6.743 2.92 C 3.499 4.793 1.5 8.255 1.5 12.001" />
  <path stroke="null" fill="#FFD83D" d="m9.66728,5.36351c1.40539,-0.52567 2.9872,-0.52687 4.41899,-0.09481c1.86385,0.57848 3.43726,1.98506 4.25936,3.7505c0.22683,0.50287 0.44406,1.02734 0.46566,1.58661c-1.04774,-0.60728 -2.19629,-1.00093 -3.34724,-1.35978c-1.84104,-0.66369 -3.7685,-1.12455 -5.51113,-2.03667c-0.40565,-0.24243 -0.92292,-0.49087 -1.03334,-0.99613c-0.04441,-0.43686 0.41766,-0.68049 0.7477,-0.84971" />
  <path stroke="null" fill="#FFD83D" d="m5.42472,9.61207c0.40685,-1.10415 1.07414,-2.12908 1.98026,-2.88878c0.23043,1.89505 1.03694,3.72649 2.36911,5.10428c1.59741,1.65982 3.87291,2.67875 6.18802,2.64035c0.91932,0.0288 1.81824,-0.18362 2.71476,-0.35525c-0.88212,3.18762 -4.37578,5.3035 -7.61261,4.79464c-1.95386,-0.24963 -3.7577,-1.40659 -4.84624,-3.04c-1.22776,-1.80504 -1.5374,-4.20176 -0.79331,-6.25523z" />
  <path stroke="null" fill="#FF6F03" d="m15.46405,9.24603c1.15095,0.35885 2.2995,0.7525 3.34724,1.35978l0.07081,0.0372c0.09721,0.7309 0.16802,1.4762 0.03841,2.20829c-0.52687,-0.22323 -0.95413,-0.61568 -1.40059,-0.96253c-0.85931,-0.71529 -1.73663,-1.5338 -2.05587,-2.64275" class="st2"></path>
</svg>