<svg width="24" height="24" viewBox="0 0 24 24" fill="none">
  <path fill="#FFD83D" d="M 8.587 2.314 C 10.641 1.545 12.953 1.544 15.046 2.175 C 17.77 3.021 20.07 5.077 21.272 7.657 C 21.603 8.392 21.921 9.159 21.952 9.976 C 20.421 9.089 18.742 8.513 17.06 7.989 C 14.369 7.019 11.551 6.345 9.004 5.012 C 8.411 4.657 7.655 4.294 7.494 3.556 C 7.429 2.917 8.104 2.561 8.587 2.314" />
  <path fill="#FFD83D" d="M 2.385 8.524 C 2.98 6.91 3.956 5.412 5.28 4.301 C 5.617 7.071 6.796 9.748 8.743 11.762 C 11.078 14.188 14.404 15.678 17.788 15.621 C 19.131 15.664 20.445 15.353 21.756 15.102 C 20.466 19.761 15.36 22.854 10.629 22.11 C 7.773 21.745 5.136 20.054 3.545 17.667 C 1.75 15.028 1.298 11.525 2.385 8.524 L 2.385 8.524 Z" />
  <path fill="#FF6F03" d="M 17.06 7.989 C 18.742 8.513 20.421 9.089 21.952 9.976 L 22.056 10.031 C 22.198 11.099 22.301 12.188 22.112 13.258 C 21.342 12.932 20.717 12.359 20.065 11.852 C 18.809 10.806 17.526 9.61 17.06 7.989" class="st2" />
</svg>